<mxfile host="app.diagrams.net" modified="2021-03-16T08:18:33.619Z" agent="5.0 (Windows NT 6.1; Win64; x64) AppleWebKit/537.36 (KHTML, like Gecko) Chrome/87.0.4280.88 Safari/537.36" etag="lIqh3-jhhnrNu1MQ6soh" version="14.4.7" type="github">
  <diagram id="C5RBs43oDa-KdzZeNtuy" name="Page-1">
    <mxGraphModel dx="1246" dy="1846" grid="1" gridSize="10" guides="1" tooltips="1" connect="1" arrows="1" fold="1" page="1" pageScale="1" pageWidth="827" pageHeight="1169" math="0" shadow="0">
      <root>
        <mxCell id="WIyWlLk6GJQsqaUBKTNV-0" />
        <mxCell id="WIyWlLk6GJQsqaUBKTNV-1" parent="WIyWlLk6GJQsqaUBKTNV-0" />
        <mxCell id="aJqS2GngOPCB8_TzCR6t-37" style="edgeStyle=orthogonalEdgeStyle;rounded=0;orthogonalLoop=1;jettySize=auto;html=1;exitX=0.5;exitY=1;exitDx=0;exitDy=0;entryX=0.5;entryY=0;entryDx=0;entryDy=0;" edge="1" parent="WIyWlLk6GJQsqaUBKTNV-1" source="aJqS2GngOPCB8_TzCR6t-33" target="aJqS2GngOPCB8_TzCR6t-34">
          <mxGeometry relative="1" as="geometry" />
        </mxCell>
        <mxCell id="aJqS2GngOPCB8_TzCR6t-33" value="用户行为宽表" style="shape=parallelogram;perimeter=parallelogramPerimeter;whiteSpace=wrap;html=1;fixedSize=1;" vertex="1" parent="WIyWlLk6GJQsqaUBKTNV-1">
          <mxGeometry x="130" y="1970" width="120" height="60" as="geometry" />
        </mxCell>
        <mxCell id="aJqS2GngOPCB8_TzCR6t-38" style="edgeStyle=orthogonalEdgeStyle;rounded=0;orthogonalLoop=1;jettySize=auto;html=1;exitX=0.5;exitY=1;exitDx=0;exitDy=0;entryX=0.5;entryY=0;entryDx=0;entryDy=0;" edge="1" parent="WIyWlLk6GJQsqaUBKTNV-1" source="aJqS2GngOPCB8_TzCR6t-34" target="aJqS2GngOPCB8_TzCR6t-35">
          <mxGeometry relative="1" as="geometry" />
        </mxCell>
        <mxCell id="aJqS2GngOPCB8_TzCR6t-34" value="清洗、过滤" style="rounded=1;whiteSpace=wrap;html=1;" vertex="1" parent="WIyWlLk6GJQsqaUBKTNV-1">
          <mxGeometry x="130" y="2090" width="120" height="60" as="geometry" />
        </mxCell>
        <mxCell id="aJqS2GngOPCB8_TzCR6t-39" style="edgeStyle=orthogonalEdgeStyle;rounded=0;orthogonalLoop=1;jettySize=auto;html=1;exitX=0.5;exitY=1;exitDx=0;exitDy=0;entryX=0.5;entryY=0;entryDx=0;entryDy=0;" edge="1" parent="WIyWlLk6GJQsqaUBKTNV-1" source="aJqS2GngOPCB8_TzCR6t-35" target="aJqS2GngOPCB8_TzCR6t-36">
          <mxGeometry relative="1" as="geometry" />
        </mxCell>
        <mxCell id="aJqS2GngOPCB8_TzCR6t-35" value="用户日清中间表" style="shape=parallelogram;perimeter=parallelogramPerimeter;whiteSpace=wrap;html=1;fixedSize=1;" vertex="1" parent="WIyWlLk6GJQsqaUBKTNV-1">
          <mxGeometry x="130" y="2210" width="120" height="60" as="geometry" />
        </mxCell>
        <mxCell id="aJqS2GngOPCB8_TzCR6t-44" style="edgeStyle=orthogonalEdgeStyle;rounded=0;orthogonalLoop=1;jettySize=auto;html=1;exitX=0.5;exitY=1;exitDx=0;exitDy=0;entryX=0.5;entryY=0;entryDx=0;entryDy=0;" edge="1" parent="WIyWlLk6GJQsqaUBKTNV-1" source="aJqS2GngOPCB8_TzCR6t-36" target="aJqS2GngOPCB8_TzCR6t-43">
          <mxGeometry relative="1" as="geometry" />
        </mxCell>
        <mxCell id="aJqS2GngOPCB8_TzCR6t-36" value="" style="rounded=1;whiteSpace=wrap;html=1;" vertex="1" parent="WIyWlLk6GJQsqaUBKTNV-1">
          <mxGeometry x="130" y="2330" width="120" height="60" as="geometry" />
        </mxCell>
        <mxCell id="aJqS2GngOPCB8_TzCR6t-42" style="edgeStyle=orthogonalEdgeStyle;rounded=0;orthogonalLoop=1;jettySize=auto;html=1;exitX=0.5;exitY=1;exitDx=0;exitDy=0;entryX=0.5;entryY=0;entryDx=0;entryDy=0;" edge="1" parent="WIyWlLk6GJQsqaUBKTNV-1" source="aJqS2GngOPCB8_TzCR6t-40" target="aJqS2GngOPCB8_TzCR6t-41">
          <mxGeometry relative="1" as="geometry" />
        </mxCell>
        <mxCell id="aJqS2GngOPCB8_TzCR6t-40" value="订单表" style="shape=parallelogram;perimeter=parallelogramPerimeter;whiteSpace=wrap;html=1;fixedSize=1;" vertex="1" parent="WIyWlLk6GJQsqaUBKTNV-1">
          <mxGeometry x="370" y="2210" width="120" height="60" as="geometry" />
        </mxCell>
        <mxCell id="aJqS2GngOPCB8_TzCR6t-45" style="edgeStyle=orthogonalEdgeStyle;rounded=0;orthogonalLoop=1;jettySize=auto;html=1;exitX=0.5;exitY=1;exitDx=0;exitDy=0;" edge="1" parent="WIyWlLk6GJQsqaUBKTNV-1" source="aJqS2GngOPCB8_TzCR6t-41" target="aJqS2GngOPCB8_TzCR6t-43">
          <mxGeometry relative="1" as="geometry" />
        </mxCell>
        <mxCell id="aJqS2GngOPCB8_TzCR6t-41" value="" style="rounded=1;whiteSpace=wrap;html=1;" vertex="1" parent="WIyWlLk6GJQsqaUBKTNV-1">
          <mxGeometry x="370" y="2330" width="120" height="60" as="geometry" />
        </mxCell>
        <mxCell id="aJqS2GngOPCB8_TzCR6t-48" style="edgeStyle=orthogonalEdgeStyle;rounded=0;orthogonalLoop=1;jettySize=auto;html=1;exitX=0.5;exitY=1;exitDx=0;exitDy=0;entryX=0.5;entryY=0;entryDx=0;entryDy=0;" edge="1" parent="WIyWlLk6GJQsqaUBKTNV-1" source="aJqS2GngOPCB8_TzCR6t-43" target="aJqS2GngOPCB8_TzCR6t-47">
          <mxGeometry relative="1" as="geometry" />
        </mxCell>
        <mxCell id="aJqS2GngOPCB8_TzCR6t-43" value="用户日清表" style="shape=parallelogram;perimeter=parallelogramPerimeter;whiteSpace=wrap;html=1;fixedSize=1;" vertex="1" parent="WIyWlLk6GJQsqaUBKTNV-1">
          <mxGeometry x="250" y="2450" width="120" height="60" as="geometry" />
        </mxCell>
        <mxCell id="aJqS2GngOPCB8_TzCR6t-49" style="edgeStyle=orthogonalEdgeStyle;rounded=0;orthogonalLoop=1;jettySize=auto;html=1;exitX=0.5;exitY=1;exitDx=0;exitDy=0;" edge="1" parent="WIyWlLk6GJQsqaUBKTNV-1" source="aJqS2GngOPCB8_TzCR6t-46" target="aJqS2GngOPCB8_TzCR6t-47">
          <mxGeometry relative="1" as="geometry" />
        </mxCell>
        <mxCell id="aJqS2GngOPCB8_TzCR6t-46" value="用户维度表" style="shape=parallelogram;perimeter=parallelogramPerimeter;whiteSpace=wrap;html=1;fixedSize=1;" vertex="1" parent="WIyWlLk6GJQsqaUBKTNV-1">
          <mxGeometry x="760" y="2450" width="120" height="60" as="geometry" />
        </mxCell>
        <mxCell id="aJqS2GngOPCB8_TzCR6t-51" style="edgeStyle=orthogonalEdgeStyle;rounded=0;orthogonalLoop=1;jettySize=auto;html=1;exitX=0.5;exitY=1;exitDx=0;exitDy=0;entryX=0.5;entryY=0;entryDx=0;entryDy=0;" edge="1" parent="WIyWlLk6GJQsqaUBKTNV-1" source="aJqS2GngOPCB8_TzCR6t-47" target="aJqS2GngOPCB8_TzCR6t-50">
          <mxGeometry relative="1" as="geometry" />
        </mxCell>
        <mxCell id="aJqS2GngOPCB8_TzCR6t-47" value="" style="rounded=1;whiteSpace=wrap;html=1;" vertex="1" parent="WIyWlLk6GJQsqaUBKTNV-1">
          <mxGeometry x="490" y="2610" width="120" height="60" as="geometry" />
        </mxCell>
        <mxCell id="aJqS2GngOPCB8_TzCR6t-50" value="用户属性表" style="shape=parallelogram;perimeter=parallelogramPerimeter;whiteSpace=wrap;html=1;fixedSize=1;" vertex="1" parent="WIyWlLk6GJQsqaUBKTNV-1">
          <mxGeometry x="490" y="2730" width="120" height="60" as="geometry" />
        </mxCell>
        <mxCell id="aJqS2GngOPCB8_TzCR6t-54" style="edgeStyle=orthogonalEdgeStyle;rounded=0;orthogonalLoop=1;jettySize=auto;html=1;exitX=0.5;exitY=1;exitDx=0;exitDy=0;" edge="1" parent="WIyWlLk6GJQsqaUBKTNV-1" source="aJqS2GngOPCB8_TzCR6t-59" target="aJqS2GngOPCB8_TzCR6t-53">
          <mxGeometry relative="1" as="geometry" />
        </mxCell>
        <mxCell id="aJqS2GngOPCB8_TzCR6t-52" value="用户行为宽表" style="rounded=0;whiteSpace=wrap;html=1;" vertex="1" parent="WIyWlLk6GJQsqaUBKTNV-1">
          <mxGeometry x="120" y="30" width="120" height="60" as="geometry" />
        </mxCell>
        <mxCell id="aJqS2GngOPCB8_TzCR6t-66" style="edgeStyle=orthogonalEdgeStyle;rounded=0;orthogonalLoop=1;jettySize=auto;html=1;exitX=0.5;exitY=1;exitDx=0;exitDy=0;entryX=0.5;entryY=0;entryDx=0;entryDy=0;" edge="1" parent="WIyWlLk6GJQsqaUBKTNV-1" source="aJqS2GngOPCB8_TzCR6t-53" target="aJqS2GngOPCB8_TzCR6t-63">
          <mxGeometry relative="1" as="geometry" />
        </mxCell>
        <mxCell id="aJqS2GngOPCB8_TzCR6t-53" value="用户日清中间表" style="rounded=0;whiteSpace=wrap;html=1;" vertex="1" parent="WIyWlLk6GJQsqaUBKTNV-1">
          <mxGeometry x="120" y="160" width="120" height="60" as="geometry" />
        </mxCell>
        <mxCell id="aJqS2GngOPCB8_TzCR6t-58" style="edgeStyle=orthogonalEdgeStyle;rounded=0;orthogonalLoop=1;jettySize=auto;html=1;exitX=0.5;exitY=1;exitDx=0;exitDy=0;" edge="1" parent="WIyWlLk6GJQsqaUBKTNV-1" source="aJqS2GngOPCB8_TzCR6t-63" target="aJqS2GngOPCB8_TzCR6t-56">
          <mxGeometry relative="1" as="geometry" />
        </mxCell>
        <mxCell id="aJqS2GngOPCB8_TzCR6t-73" style="edgeStyle=orthogonalEdgeStyle;rounded=0;orthogonalLoop=1;jettySize=auto;html=1;exitX=0.5;exitY=1;exitDx=0;exitDy=0;entryX=0.5;entryY=0;entryDx=0;entryDy=0;" edge="1" parent="WIyWlLk6GJQsqaUBKTNV-1" source="aJqS2GngOPCB8_TzCR6t-55" target="aJqS2GngOPCB8_TzCR6t-72">
          <mxGeometry relative="1" as="geometry" />
        </mxCell>
        <mxCell id="aJqS2GngOPCB8_TzCR6t-55" value="订单表" style="rounded=0;whiteSpace=wrap;html=1;" vertex="1" parent="WIyWlLk6GJQsqaUBKTNV-1">
          <mxGeometry x="360" y="30" width="120" height="60" as="geometry" />
        </mxCell>
        <mxCell id="aJqS2GngOPCB8_TzCR6t-62" style="edgeStyle=orthogonalEdgeStyle;rounded=0;orthogonalLoop=1;jettySize=auto;html=1;exitX=0.5;exitY=1;exitDx=0;exitDy=0;entryX=0.5;entryY=0;entryDx=0;entryDy=0;" edge="1" parent="WIyWlLk6GJQsqaUBKTNV-1" source="aJqS2GngOPCB8_TzCR6t-68" target="aJqS2GngOPCB8_TzCR6t-97">
          <mxGeometry relative="1" as="geometry">
            <mxPoint x="397.5" y="520" as="targetPoint" />
          </mxGeometry>
        </mxCell>
        <mxCell id="aJqS2GngOPCB8_TzCR6t-56" value="用户日清表" style="rounded=0;whiteSpace=wrap;html=1;" vertex="1" parent="WIyWlLk6GJQsqaUBKTNV-1">
          <mxGeometry x="337.5" y="360" width="120" height="60" as="geometry" />
        </mxCell>
        <mxCell id="aJqS2GngOPCB8_TzCR6t-59" value="清洗/过滤" style="text;html=1;strokeColor=none;fillColor=none;align=center;verticalAlign=middle;whiteSpace=wrap;rounded=0;" vertex="1" parent="WIyWlLk6GJQsqaUBKTNV-1">
          <mxGeometry x="145" y="120" width="70" height="20" as="geometry" />
        </mxCell>
        <mxCell id="aJqS2GngOPCB8_TzCR6t-60" style="edgeStyle=orthogonalEdgeStyle;rounded=0;orthogonalLoop=1;jettySize=auto;html=1;exitX=0.5;exitY=1;exitDx=0;exitDy=0;" edge="1" parent="WIyWlLk6GJQsqaUBKTNV-1" source="aJqS2GngOPCB8_TzCR6t-52" target="aJqS2GngOPCB8_TzCR6t-59">
          <mxGeometry relative="1" as="geometry">
            <mxPoint x="180" y="90" as="sourcePoint" />
            <mxPoint x="180" y="160" as="targetPoint" />
          </mxGeometry>
        </mxCell>
        <mxCell id="aJqS2GngOPCB8_TzCR6t-63" value="通过union_id进行left join" style="text;html=1;strokeColor=none;fillColor=none;align=center;verticalAlign=middle;whiteSpace=wrap;rounded=0;" vertex="1" parent="WIyWlLk6GJQsqaUBKTNV-1">
          <mxGeometry x="290" y="300" width="215" height="20" as="geometry" />
        </mxCell>
        <mxCell id="aJqS2GngOPCB8_TzCR6t-68" value="指标汇总" style="text;html=1;strokeColor=none;fillColor=none;align=center;verticalAlign=middle;whiteSpace=wrap;rounded=0;" vertex="1" parent="WIyWlLk6GJQsqaUBKTNV-1">
          <mxGeometry x="356.25" y="460" width="82.5" height="20" as="geometry" />
        </mxCell>
        <mxCell id="aJqS2GngOPCB8_TzCR6t-69" style="edgeStyle=orthogonalEdgeStyle;rounded=0;orthogonalLoop=1;jettySize=auto;html=1;exitX=0.5;exitY=1;exitDx=0;exitDy=0;entryX=0.5;entryY=0;entryDx=0;entryDy=0;" edge="1" parent="WIyWlLk6GJQsqaUBKTNV-1" source="aJqS2GngOPCB8_TzCR6t-56" target="aJqS2GngOPCB8_TzCR6t-68">
          <mxGeometry relative="1" as="geometry">
            <mxPoint x="397.5" y="380" as="sourcePoint" />
            <mxPoint x="397.5" y="440" as="targetPoint" />
          </mxGeometry>
        </mxCell>
        <mxCell id="aJqS2GngOPCB8_TzCR6t-77" style="edgeStyle=orthogonalEdgeStyle;rounded=0;orthogonalLoop=1;jettySize=auto;html=1;exitX=0.5;exitY=1;exitDx=0;exitDy=0;entryX=0.5;entryY=0;entryDx=0;entryDy=0;" edge="1" parent="WIyWlLk6GJQsqaUBKTNV-1" source="aJqS2GngOPCB8_TzCR6t-70" target="aJqS2GngOPCB8_TzCR6t-72">
          <mxGeometry relative="1" as="geometry" />
        </mxCell>
        <mxCell id="aJqS2GngOPCB8_TzCR6t-70" value="订单扩展表" style="rounded=0;whiteSpace=wrap;html=1;" vertex="1" parent="WIyWlLk6GJQsqaUBKTNV-1">
          <mxGeometry x="560" y="30" width="120" height="60" as="geometry" />
        </mxCell>
        <mxCell id="aJqS2GngOPCB8_TzCR6t-83" style="edgeStyle=orthogonalEdgeStyle;rounded=0;orthogonalLoop=1;jettySize=auto;html=1;exitX=0.5;exitY=1;exitDx=0;exitDy=0;entryX=0.5;entryY=0;entryDx=0;entryDy=0;" edge="1" parent="WIyWlLk6GJQsqaUBKTNV-1" source="aJqS2GngOPCB8_TzCR6t-72" target="aJqS2GngOPCB8_TzCR6t-81">
          <mxGeometry relative="1" as="geometry" />
        </mxCell>
        <mxCell id="aJqS2GngOPCB8_TzCR6t-72" value="通过domain、orders_id进行left join" style="text;html=1;strokeColor=none;fillColor=none;align=center;verticalAlign=middle;whiteSpace=wrap;rounded=0;" vertex="1" parent="WIyWlLk6GJQsqaUBKTNV-1">
          <mxGeometry x="400" y="140" width="230" height="20" as="geometry" />
        </mxCell>
        <mxCell id="aJqS2GngOPCB8_TzCR6t-84" style="edgeStyle=orthogonalEdgeStyle;rounded=0;orthogonalLoop=1;jettySize=auto;html=1;exitX=0.5;exitY=1;exitDx=0;exitDy=0;" edge="1" parent="WIyWlLk6GJQsqaUBKTNV-1" source="aJqS2GngOPCB8_TzCR6t-80" target="aJqS2GngOPCB8_TzCR6t-81">
          <mxGeometry relative="1" as="geometry">
            <Array as="points">
              <mxPoint x="820" y="180" />
              <mxPoint x="660" y="180" />
            </Array>
          </mxGeometry>
        </mxCell>
        <mxCell id="aJqS2GngOPCB8_TzCR6t-80" value="订单信息表" style="rounded=0;whiteSpace=wrap;html=1;" vertex="1" parent="WIyWlLk6GJQsqaUBKTNV-1">
          <mxGeometry x="760" y="30" width="120" height="60" as="geometry" />
        </mxCell>
        <mxCell id="aJqS2GngOPCB8_TzCR6t-85" style="edgeStyle=orthogonalEdgeStyle;rounded=0;orthogonalLoop=1;jettySize=auto;html=1;exitX=0.5;exitY=1;exitDx=0;exitDy=0;" edge="1" parent="WIyWlLk6GJQsqaUBKTNV-1" source="aJqS2GngOPCB8_TzCR6t-81" target="aJqS2GngOPCB8_TzCR6t-63">
          <mxGeometry relative="1" as="geometry" />
        </mxCell>
        <mxCell id="aJqS2GngOPCB8_TzCR6t-81" value="通过orders_id关联" style="text;html=1;strokeColor=none;fillColor=none;align=center;verticalAlign=middle;whiteSpace=wrap;rounded=0;" vertex="1" parent="WIyWlLk6GJQsqaUBKTNV-1">
          <mxGeometry x="580" y="200" width="160" height="20" as="geometry" />
        </mxCell>
        <mxCell id="aJqS2GngOPCB8_TzCR6t-109" style="edgeStyle=orthogonalEdgeStyle;rounded=0;orthogonalLoop=1;jettySize=auto;html=1;exitX=0.5;exitY=1;exitDx=0;exitDy=0;entryX=0.5;entryY=0;entryDx=0;entryDy=0;" edge="1" parent="WIyWlLk6GJQsqaUBKTNV-1" source="aJqS2GngOPCB8_TzCR6t-86" target="aJqS2GngOPCB8_TzCR6t-97">
          <mxGeometry relative="1" as="geometry" />
        </mxCell>
        <mxCell id="aJqS2GngOPCB8_TzCR6t-86" value="id mapping表" style="rounded=0;whiteSpace=wrap;html=1;" vertex="1" parent="WIyWlLk6GJQsqaUBKTNV-1">
          <mxGeometry x="608.75" y="420" width="120" height="60" as="geometry" />
        </mxCell>
        <mxCell id="aJqS2GngOPCB8_TzCR6t-96" style="edgeStyle=orthogonalEdgeStyle;rounded=0;orthogonalLoop=1;jettySize=auto;html=1;exitX=0.5;exitY=1;exitDx=0;exitDy=0;entryX=0.5;entryY=0;entryDx=0;entryDy=0;" edge="1" parent="WIyWlLk6GJQsqaUBKTNV-1" source="aJqS2GngOPCB8_TzCR6t-87" target="aJqS2GngOPCB8_TzCR6t-93">
          <mxGeometry relative="1" as="geometry" />
        </mxCell>
        <mxCell id="aJqS2GngOPCB8_TzCR6t-87" value="rfm模型" style="rounded=0;whiteSpace=wrap;html=1;" vertex="1" parent="WIyWlLk6GJQsqaUBKTNV-1">
          <mxGeometry x="1431" y="420" width="120" height="60" as="geometry" />
        </mxCell>
        <mxCell id="aJqS2GngOPCB8_TzCR6t-94" style="edgeStyle=orthogonalEdgeStyle;rounded=0;orthogonalLoop=1;jettySize=auto;html=1;exitX=0.5;exitY=1;exitDx=0;exitDy=0;entryX=0.5;entryY=0;entryDx=0;entryDy=0;" edge="1" parent="WIyWlLk6GJQsqaUBKTNV-1" source="aJqS2GngOPCB8_TzCR6t-88" target="aJqS2GngOPCB8_TzCR6t-93">
          <mxGeometry relative="1" as="geometry" />
        </mxCell>
        <mxCell id="aJqS2GngOPCB8_TzCR6t-88" value="用户维度表" style="rounded=0;whiteSpace=wrap;html=1;" vertex="1" parent="WIyWlLk6GJQsqaUBKTNV-1">
          <mxGeometry x="1240" y="420" width="120" height="60" as="geometry" />
        </mxCell>
        <mxCell id="aJqS2GngOPCB8_TzCR6t-103" style="edgeStyle=orthogonalEdgeStyle;rounded=0;orthogonalLoop=1;jettySize=auto;html=1;exitX=0.5;exitY=1;exitDx=0;exitDy=0;entryX=0.5;entryY=0;entryDx=0;entryDy=0;" edge="1" parent="WIyWlLk6GJQsqaUBKTNV-1" source="aJqS2GngOPCB8_TzCR6t-93" target="aJqS2GngOPCB8_TzCR6t-101">
          <mxGeometry relative="1" as="geometry" />
        </mxCell>
        <mxCell id="aJqS2GngOPCB8_TzCR6t-93" value="通过domain、customers_id进行left join" style="text;html=1;strokeColor=none;fillColor=none;align=center;verticalAlign=middle;whiteSpace=wrap;rounded=0;" vertex="1" parent="WIyWlLk6GJQsqaUBKTNV-1">
          <mxGeometry x="1280" y="530" width="230" height="20" as="geometry" />
        </mxCell>
        <mxCell id="aJqS2GngOPCB8_TzCR6t-102" style="edgeStyle=orthogonalEdgeStyle;rounded=0;orthogonalLoop=1;jettySize=auto;html=1;exitX=0.5;exitY=1;exitDx=0;exitDy=0;entryX=0.5;entryY=0;entryDx=0;entryDy=0;" edge="1" parent="WIyWlLk6GJQsqaUBKTNV-1" source="aJqS2GngOPCB8_TzCR6t-97" target="aJqS2GngOPCB8_TzCR6t-101">
          <mxGeometry relative="1" as="geometry" />
        </mxCell>
        <mxCell id="aJqS2GngOPCB8_TzCR6t-97" value="通过union_id进行left join" style="text;html=1;strokeColor=none;fillColor=none;align=center;verticalAlign=middle;whiteSpace=wrap;rounded=0;" vertex="1" parent="WIyWlLk6GJQsqaUBKTNV-1">
          <mxGeometry x="438.75" y="530" width="170" height="20" as="geometry" />
        </mxCell>
        <mxCell id="aJqS2GngOPCB8_TzCR6t-105" value="" style="edgeStyle=orthogonalEdgeStyle;rounded=0;orthogonalLoop=1;jettySize=auto;html=1;" edge="1" parent="WIyWlLk6GJQsqaUBKTNV-1" source="aJqS2GngOPCB8_TzCR6t-101" target="aJqS2GngOPCB8_TzCR6t-104">
          <mxGeometry relative="1" as="geometry" />
        </mxCell>
        <mxCell id="aJqS2GngOPCB8_TzCR6t-101" value="通过domain、customers_id进行left join" style="text;html=1;strokeColor=none;fillColor=none;align=center;verticalAlign=middle;whiteSpace=wrap;rounded=0;" vertex="1" parent="WIyWlLk6GJQsqaUBKTNV-1">
          <mxGeometry x="810" y="640" width="293" height="20" as="geometry" />
        </mxCell>
        <mxCell id="aJqS2GngOPCB8_TzCR6t-104" value="用户画像表" style="whiteSpace=wrap;html=1;" vertex="1" parent="WIyWlLk6GJQsqaUBKTNV-1">
          <mxGeometry x="896.5" y="690" width="120" height="60" as="geometry" />
        </mxCell>
        <mxCell id="aJqS2GngOPCB8_TzCR6t-127" value="" style="group" vertex="1" connectable="0" parent="WIyWlLk6GJQsqaUBKTNV-1">
          <mxGeometry x="900" y="-81" width="800" height="400" as="geometry" />
        </mxCell>
        <mxCell id="aJqS2GngOPCB8_TzCR6t-126" value="" style="rounded=0;whiteSpace=wrap;html=1;fillColor=none;dashed=1;" vertex="1" parent="aJqS2GngOPCB8_TzCR6t-127">
          <mxGeometry width="800" height="400" as="geometry" />
        </mxCell>
        <mxCell id="aJqS2GngOPCB8_TzCR6t-106" value="bg的gdpr_customers" style="rounded=0;whiteSpace=wrap;html=1;" vertex="1" parent="aJqS2GngOPCB8_TzCR6t-127">
          <mxGeometry x="80" y="110" width="110" height="60" as="geometry" />
        </mxCell>
        <mxCell id="aJqS2GngOPCB8_TzCR6t-107" value="bg的customers_info" style="rounded=0;whiteSpace=wrap;html=1;" vertex="1" parent="aJqS2GngOPCB8_TzCR6t-127">
          <mxGeometry x="210" y="110" width="100" height="60" as="geometry" />
        </mxCell>
        <mxCell id="aJqS2GngOPCB8_TzCR6t-108" value="bg的customers_growth" style="rounded=0;whiteSpace=wrap;html=1;" vertex="1" parent="aJqS2GngOPCB8_TzCR6t-127">
          <mxGeometry x="330" y="110" width="120" height="60" as="geometry" />
        </mxCell>
        <mxCell id="aJqS2GngOPCB8_TzCR6t-110" value="通过customers_id进行left join" style="text;html=1;strokeColor=none;fillColor=none;align=center;verticalAlign=middle;whiteSpace=wrap;rounded=0;" vertex="1" parent="aJqS2GngOPCB8_TzCR6t-127">
          <mxGeometry x="300" y="240" width="180" height="20" as="geometry" />
        </mxCell>
        <mxCell id="aJqS2GngOPCB8_TzCR6t-111" style="edgeStyle=orthogonalEdgeStyle;rounded=0;orthogonalLoop=1;jettySize=auto;html=1;exitX=0.5;exitY=1;exitDx=0;exitDy=0;" edge="1" parent="aJqS2GngOPCB8_TzCR6t-127" source="aJqS2GngOPCB8_TzCR6t-106" target="aJqS2GngOPCB8_TzCR6t-110">
          <mxGeometry relative="1" as="geometry" />
        </mxCell>
        <mxCell id="aJqS2GngOPCB8_TzCR6t-112" style="edgeStyle=orthogonalEdgeStyle;rounded=0;orthogonalLoop=1;jettySize=auto;html=1;exitX=0.5;exitY=1;exitDx=0;exitDy=0;" edge="1" parent="aJqS2GngOPCB8_TzCR6t-127" source="aJqS2GngOPCB8_TzCR6t-107" target="aJqS2GngOPCB8_TzCR6t-110">
          <mxGeometry relative="1" as="geometry" />
        </mxCell>
        <mxCell id="aJqS2GngOPCB8_TzCR6t-113" style="edgeStyle=orthogonalEdgeStyle;rounded=0;orthogonalLoop=1;jettySize=auto;html=1;exitX=0.5;exitY=1;exitDx=0;exitDy=0;entryX=0.5;entryY=0;entryDx=0;entryDy=0;" edge="1" parent="aJqS2GngOPCB8_TzCR6t-127" source="aJqS2GngOPCB8_TzCR6t-108" target="aJqS2GngOPCB8_TzCR6t-110">
          <mxGeometry relative="1" as="geometry" />
        </mxCell>
        <mxCell id="aJqS2GngOPCB8_TzCR6t-122" style="edgeStyle=orthogonalEdgeStyle;rounded=0;orthogonalLoop=1;jettySize=auto;html=1;exitX=0.5;exitY=1;exitDx=0;exitDy=0;entryX=0.5;entryY=0;entryDx=0;entryDy=0;" edge="1" parent="aJqS2GngOPCB8_TzCR6t-127" source="aJqS2GngOPCB8_TzCR6t-114" target="aJqS2GngOPCB8_TzCR6t-110">
          <mxGeometry relative="1" as="geometry" />
        </mxCell>
        <mxCell id="aJqS2GngOPCB8_TzCR6t-114" value="bg的gdpr_customers_thirdparty" style="rounded=0;whiteSpace=wrap;html=1;" vertex="1" parent="aJqS2GngOPCB8_TzCR6t-127">
          <mxGeometry x="470" y="110" width="120" height="60" as="geometry" />
        </mxCell>
        <mxCell id="aJqS2GngOPCB8_TzCR6t-123" style="edgeStyle=orthogonalEdgeStyle;rounded=0;orthogonalLoop=1;jettySize=auto;html=1;exitX=0.5;exitY=1;exitDx=0;exitDy=0;" edge="1" parent="aJqS2GngOPCB8_TzCR6t-127" source="aJqS2GngOPCB8_TzCR6t-115" target="aJqS2GngOPCB8_TzCR6t-110">
          <mxGeometry relative="1" as="geometry" />
        </mxCell>
        <mxCell id="aJqS2GngOPCB8_TzCR6t-115" value="bg的customer_points_log" style="rounded=0;whiteSpace=wrap;html=1;" vertex="1" parent="aJqS2GngOPCB8_TzCR6t-127">
          <mxGeometry x="610" y="110" width="120" height="60" as="geometry" />
        </mxCell>
        <mxCell id="aJqS2GngOPCB8_TzCR6t-118" value="衍生数据处理，构成用户维度" style="text;html=1;strokeColor=none;fillColor=none;align=center;verticalAlign=middle;whiteSpace=wrap;rounded=0;" vertex="1" parent="aJqS2GngOPCB8_TzCR6t-127">
          <mxGeometry x="310" y="290" width="160" height="20" as="geometry" />
        </mxCell>
        <mxCell id="aJqS2GngOPCB8_TzCR6t-119" style="edgeStyle=orthogonalEdgeStyle;rounded=0;orthogonalLoop=1;jettySize=auto;html=1;exitX=0.5;exitY=1;exitDx=0;exitDy=0;entryX=0.5;entryY=0;entryDx=0;entryDy=0;" edge="1" parent="aJqS2GngOPCB8_TzCR6t-127" source="aJqS2GngOPCB8_TzCR6t-110" target="aJqS2GngOPCB8_TzCR6t-118">
          <mxGeometry relative="1" as="geometry" />
        </mxCell>
        <mxCell id="aJqS2GngOPCB8_TzCR6t-128" value="bg用户维度，ys、nc、ky类似，处理逻辑比较复杂，此处仅展示表依赖关系" style="text;html=1;strokeColor=none;fillColor=none;align=center;verticalAlign=middle;whiteSpace=wrap;rounded=0;dashed=1;" vertex="1" parent="aJqS2GngOPCB8_TzCR6t-127">
          <mxGeometry width="230" height="50" as="geometry" />
        </mxCell>
        <mxCell id="aJqS2GngOPCB8_TzCR6t-139" style="edgeStyle=orthogonalEdgeStyle;rounded=0;orthogonalLoop=1;jettySize=auto;html=1;exitX=0.5;exitY=1;exitDx=0;exitDy=0;entryX=0.5;entryY=0;entryDx=0;entryDy=0;" edge="1" parent="WIyWlLk6GJQsqaUBKTNV-1" source="aJqS2GngOPCB8_TzCR6t-136" target="aJqS2GngOPCB8_TzCR6t-88">
          <mxGeometry relative="1" as="geometry" />
        </mxCell>
        <mxCell id="aJqS2GngOPCB8_TzCR6t-136" value="union所有站点（bg、ys、nc、ky）的用户维度" style="text;html=1;strokeColor=none;fillColor=none;align=center;verticalAlign=middle;whiteSpace=wrap;rounded=0;" vertex="1" parent="WIyWlLk6GJQsqaUBKTNV-1">
          <mxGeometry x="1172.5" y="360" width="255" height="20" as="geometry" />
        </mxCell>
        <mxCell id="aJqS2GngOPCB8_TzCR6t-138" style="edgeStyle=orthogonalEdgeStyle;rounded=0;orthogonalLoop=1;jettySize=auto;html=1;exitX=0.5;exitY=1;exitDx=0;exitDy=0;" edge="1" parent="WIyWlLk6GJQsqaUBKTNV-1" source="aJqS2GngOPCB8_TzCR6t-126" target="aJqS2GngOPCB8_TzCR6t-136">
          <mxGeometry relative="1" as="geometry" />
        </mxCell>
      </root>
    </mxGraphModel>
  </diagram>
</mxfile>
